<svg width="180" height="39" viewBox="0 0 180 39" fill="none" xmlns="http://www.w3.org/2000/svg">
<path d="M5.28821 18.4198C5.30237 18.4545 5.31599 18.4894 5.32921 18.5249C5.34242 18.4882 5.35631 18.4531 5.37116 18.4198C5.38559 18.3864 5.40194 18.3527 5.4206 18.3187L6.3867 16.5885C6.40372 16.5583 6.4217 16.5401 6.44036 16.5335C6.45889 16.5269 6.48531 16.5237 6.52004 16.5237H6.80498V19.3379H6.4661V17.2698C6.4661 17.2424 6.46706 17.213 6.46842 17.1816C6.46965 17.15 6.47155 17.118 6.47428 17.0853L5.4966 18.8449C5.46309 18.9038 5.41678 18.9333 5.35699 18.9333H5.30115C5.24163 18.9333 5.19491 18.9038 5.16181 18.8449L4.16193 17.0795C4.16602 17.1135 4.16915 17.1468 4.17106 17.1795C4.17296 17.2123 4.17392 17.2424 4.17392 17.2698V19.3379H3.83545V16.5237H4.12039C4.15471 16.5237 4.18155 16.5269 4.20007 16.5335C4.21832 16.5401 4.2363 16.5583 4.25373 16.5885L5.23972 18.3207C5.25797 18.352 5.27431 18.3852 5.28821 18.4198Z" fill="#FBFBFB"/>
<path d="M9.36773 18.2184V19.3379H8.9835V18.2184L7.93799 16.5237H8.27646C8.31078 16.5237 8.33789 16.532 8.35804 16.5492C8.37793 16.5661 8.39536 16.5871 8.4098 16.6119L9.0629 17.7058C9.08946 17.7516 9.1118 17.7949 9.12978 17.8354C9.14776 17.8761 9.16383 17.9159 9.17854 17.9552C9.19311 17.9147 9.20919 17.8741 9.22621 17.8335C9.24351 17.793 9.26557 17.7504 9.29213 17.7058L9.94333 16.6119C9.95532 16.591 9.97139 16.5711 9.99223 16.5521C10.0127 16.5331 10.0395 16.5237 10.0726 16.5237H10.4151L9.36773 18.2184Z" fill="#FBFBFB"/>
<path d="M13.0041 16.9634C12.9921 16.9831 12.9794 16.9978 12.9662 17.0076C12.953 17.0174 12.9357 17.0224 12.9142 17.0224C12.8918 17.0224 12.8657 17.0113 12.8357 16.989C12.8057 16.9667 12.768 16.9421 12.7223 16.9152C12.6762 16.8885 12.6215 16.8639 12.5568 16.8418C12.4925 16.8193 12.4146 16.8083 12.3229 16.8083C12.2365 16.8083 12.1603 16.8199 12.0937 16.8427C12.0275 16.8655 11.972 16.8966 11.9276 16.9359C11.8832 16.9753 11.8495 17.0215 11.8271 17.0744C11.8044 17.1274 11.7931 17.1848 11.7931 17.2463C11.7931 17.3248 11.8128 17.3899 11.8519 17.4416C11.891 17.4935 11.9428 17.5375 12.0073 17.5742C12.0716 17.611 12.1447 17.6427 12.2265 17.6695C12.3081 17.6963 12.3915 17.7241 12.4774 17.753C12.5628 17.7817 12.6467 17.8142 12.7282 17.8501C12.8098 17.8862 12.8827 17.9317 12.9473 17.9865C13.0117 18.0416 13.0633 18.109 13.1027 18.189C13.1418 18.2689 13.1614 18.3671 13.1614 18.4835C13.1614 18.6065 13.1399 18.7222 13.0976 18.8302C13.0551 18.9382 12.993 19.0321 12.9114 19.112C12.8297 19.1919 12.7295 19.2546 12.6107 19.3006C12.4918 19.3464 12.3567 19.3692 12.2054 19.3692C12.0209 19.3692 11.8526 19.3363 11.7007 19.2701C11.5484 19.204 11.4189 19.1147 11.311 19.002L11.4226 18.8213C11.4333 18.8069 11.4463 18.7947 11.4614 18.7849C11.4769 18.7753 11.4938 18.7703 11.5125 18.7703C11.5403 18.7703 11.572 18.7849 11.608 18.8143C11.6439 18.8439 11.6887 18.8764 11.7423 18.9117C11.7962 18.9469 11.8612 18.9794 11.9374 19.0088C12.014 19.0384 12.107 19.053 12.2173 19.053C12.309 19.053 12.3906 19.0407 12.4622 19.0158C12.534 18.991 12.5946 18.9558 12.6443 18.9108C12.6942 18.8655 12.7323 18.8115 12.7592 18.7487C12.7856 18.6858 12.7988 18.6157 12.7988 18.5384C12.7988 18.4534 12.7793 18.3837 12.7402 18.3293C12.7009 18.2751 12.6494 18.2295 12.5858 18.1928C12.5222 18.1562 12.4493 18.125 12.3677 18.0996C12.286 18.0741 12.2025 18.0478 12.1167 18.0211C12.031 17.9942 11.9475 17.9632 11.8658 17.9277C11.7842 17.8924 11.7113 17.8466 11.6477 17.7903C11.584 17.734 11.5326 17.6636 11.4935 17.579C11.4542 17.4947 11.4346 17.3902 11.4346 17.2659C11.4346 17.1664 11.4542 17.0702 11.4935 16.9771C11.5326 16.8842 11.5894 16.8019 11.6638 16.7297C11.7382 16.6577 11.8298 16.6001 11.9396 16.5569C12.049 16.5136 12.1747 16.492 12.3169 16.492C12.4761 16.492 12.6217 16.517 12.7532 16.5668C12.8846 16.6165 12.9993 16.6885 13.0976 16.7827L13.0041 16.9634Z" fill="#FBFBFB"/>
<path d="M16.7361 19.3379H16.3478V18.0573H14.8102V19.3379H14.4219V16.5237H14.8102V17.7786H16.3478V16.5237H16.7361V19.3379Z" fill="#FBFBFB"/>
<path d="M17.5906 0.930332C7.88897 0.930332 0 8.70745 0 18.2645C0 21.436 0.876203 24.5365 2.533 27.2336L4.84344 25.8543C3.44148 23.5732 2.70066 20.9495 2.70066 18.2645C2.70066 10.1745 9.37837 3.59224 17.5906 3.59224C25.8046 3.59224 32.4845 10.1745 32.4845 18.2645C32.4845 24.4333 28.5823 29.921 22.7354 32.0395C23.4163 32.7131 24.0675 33.4184 24.7165 34.1222C31.0375 31.3657 35.1849 25.1762 35.1849 18.2645C35.1849 8.70745 27.294 0.930332 17.5906 0.930332Z" fill="#F89328"/>
<path d="M21.5922 10.5844C21.5402 10.5656 21.4848 10.5459 21.4261 10.5255C21.2565 10.4666 21.1226 10.3372 21.056 10.1726C20.9914 10.0071 21.0015 9.82313 21.0847 9.66624L21.4404 8.99627C21.567 8.7592 21.5213 8.46853 21.3284 8.28116C21.1358 8.09365 20.8408 8.05094 20.6015 8.17706L16.7074 10.2305C16.3966 10.3952 16.2015 10.7149 16.2008 11.0611C16.2006 11.4085 16.3934 11.7281 16.7049 11.8935L20.5877 13.957C20.8262 14.0842 21.121 14.0434 21.314 13.8556C21.5071 13.6681 21.5538 13.3785 21.4296 13.1414L21.1979 12.7013C21.15 12.6101 21.1737 12.4989 21.2536 12.4332C21.3337 12.3675 21.4495 12.3667 21.5323 12.4298C32.5852 20.9758 -10.6588 29.5209 9.20034 38.0699H16.4764C16.3345 37.9876 16.1893 37.9027 16.0385 37.815C15.3801 37.4044 14.6352 36.9437 13.8787 36.3348C13.1301 35.7284 12.3209 35.0042 11.7489 33.9618C11.4822 33.4312 11.3078 32.807 11.3409 32.1664C11.3687 31.5244 11.5975 30.9044 11.9232 30.3781C12.2487 29.8493 12.6368 29.3616 13.0743 28.9303C13.2843 28.7048 13.5182 28.506 13.741 28.2923C13.9758 28.0959 14.2046 27.8869 14.4468 27.6962C15.4062 26.92 16.4234 26.2043 17.4478 25.5036C18.4733 24.8061 19.508 24.1254 20.5218 23.4531C21.0277 23.1157 21.5299 22.7813 22.0256 22.4504C22.5089 22.1112 22.9939 21.7864 23.4356 21.428C24.3314 20.7253 25.1342 19.9687 25.7391 19.1476C26.3493 18.3335 26.7244 17.4196 26.7141 16.5535C26.7184 16.1227 26.6198 15.7097 26.4601 15.3441C26.3021 14.9776 26.0982 14.6463 25.8617 14.3665C25.3968 13.8012 24.8733 13.3997 24.4298 13.0981C23.9803 12.8009 23.6017 12.6015 23.3397 12.4748C23.0771 12.3471 22.9309 12.2917 22.9309 12.2917C22.9309 12.2917 23.0797 12.3418 23.3476 12.4606C23.6139 12.5785 24.0017 12.7635 24.4663 13.0477C24.9249 13.3357 25.47 13.7212 25.9708 14.2853C26.2243 14.5636 26.4496 14.8975 26.6311 15.276C26.8136 15.6533 26.9369 16.0877 26.9508 16.5475C26.9993 17.4725 26.6337 18.4603 26.0317 19.3297C25.4343 20.2104 24.6372 21.0175 23.7486 21.7693C23.3105 22.1539 22.8282 22.5034 22.3509 22.8655C21.8702 23.2154 21.3817 23.5697 20.8909 23.9269C19.9064 24.6412 18.9044 25.3598 17.9181 26.0927C16.9331 26.8253 15.9622 27.5717 15.0727 28.3545C14.8474 28.5482 14.6406 28.753 14.425 28.9491C14.2267 29.1572 14.0127 29.3541 13.8321 29.5671C13.4453 29.9787 13.1313 30.422 12.8829 30.8646C12.6334 31.308 12.4991 31.7667 12.5025 32.2003C12.5015 32.6334 12.6342 33.0465 12.8452 33.4326C13.3085 34.1972 14.03 34.82 14.7339 35.3369C15.4391 35.8603 16.1646 36.2698 16.8026 36.6334C17.13 36.8064 17.4358 36.9671 17.7195 37.1168C18.0092 37.258 18.2746 37.3888 18.5148 37.5051C18.9917 37.7445 19.3852 37.908 19.6445 38.0302C19.6771 38.0451 19.7023 38.0562 19.7328 38.0699H30.2374C3.04021 28.9047 48.3661 19.7454 21.5922 10.5844Z" fill="#FBFBFB"/>
<path d="M48.9933 14.5829C49.0419 14.7014 49.0893 14.8205 49.1367 14.9406C49.1835 14.8169 49.2321 14.6948 49.2824 14.5753C49.3324 14.4548 49.3859 14.34 49.4433 14.2297L51.5948 10.1073C51.6212 10.0558 51.649 10.0149 51.678 9.9842C51.7063 9.95351 51.7383 9.93074 51.7734 9.91721C51.8089 9.90368 51.8482 9.89477 51.8914 9.89114C51.9349 9.88816 51.9868 9.88651 52.0471 9.88651H53.068V17.3284H51.8766V12.5212C51.8766 12.4317 51.8788 12.334 51.884 12.2281C51.8891 12.1215 51.8969 12.0139 51.9065 11.9037L49.7096 16.1238C49.659 16.2205 49.5938 16.2951 49.5132 16.3479C49.433 16.401 49.3392 16.4278 49.2321 16.4278H49.0458C48.9388 16.4278 48.8446 16.401 48.764 16.3479C48.6838 16.2951 48.6183 16.2205 48.5687 16.1238L46.3414 11.8882C46.3546 12.0014 46.364 12.1119 46.3685 12.2205C46.374 12.3281 46.3762 12.4288 46.3762 12.5212V17.3284H45.1851V9.88651H46.2054C46.2657 9.88651 46.3179 9.88816 46.3611 9.89114C46.4049 9.89477 46.4446 9.90368 46.4797 9.91721C46.5145 9.93074 46.5474 9.95351 46.5774 9.9842C46.6077 10.0149 46.6357 10.0558 46.6631 10.1073L48.8346 14.2406C48.892 14.3502 48.9446 14.4644 48.9933 14.5829Z" fill="#FBFBFB"/>
<path d="M60.1216 13.6082C60.1216 13.1996 60.069 12.8336 59.963 12.5089C59.8579 12.1851 59.7057 11.9095 59.5084 11.6834C59.3105 11.4567 59.07 11.2838 58.787 11.1633C58.5036 11.0432 58.1841 10.9834 57.8289 10.9834C57.4739 10.9834 57.1538 11.0432 56.8688 11.1633C56.5842 11.2838 56.3418 11.4567 56.1422 11.6834C55.943 11.9095 55.7899 12.1851 55.6822 12.5089C55.5752 12.8336 55.5213 13.1996 55.5213 13.6082C55.5213 14.0161 55.5752 14.3828 55.6822 14.7069C55.7899 15.0313 55.943 15.3056 56.1422 15.5306C56.3418 15.7551 56.5842 15.9273 56.8688 16.0475C57.1538 16.1679 57.4739 16.2277 57.8289 16.2277C58.1841 16.2277 58.5036 16.1679 58.787 16.0475C59.07 15.9273 59.3105 15.7551 59.5084 15.5306C59.7057 15.3056 59.8579 15.0313 59.963 14.7069C60.069 14.3828 60.1216 14.0161 60.1216 13.6082ZM61.5094 13.6082C61.5094 14.1537 61.4204 14.6587 61.2428 15.1237C61.0652 15.5887 60.8153 15.9907 60.4936 16.3306C60.1719 16.6706 59.785 16.9353 59.3324 17.126C58.8795 17.3161 58.3785 17.4115 57.8289 17.4115C57.2796 17.4115 56.7773 17.3161 56.3231 17.126C55.8692 16.9353 55.4804 16.6706 55.157 16.3306C54.8337 15.9907 54.5832 15.5887 54.4056 15.1237C54.228 14.6587 54.1387 14.1537 54.1387 13.6082C54.1387 13.0627 54.228 12.5577 54.4056 12.092C54.5832 11.627 54.8337 11.225 55.157 10.8851C55.4804 10.5458 55.8692 10.2805 56.3231 10.0904C56.7773 9.89962 57.2796 9.80424 57.8289 9.80424C58.3785 9.80424 58.8795 9.90094 59.3324 10.0927C59.785 10.2851 60.1719 10.5498 60.4936 10.8881C60.8153 11.2263 61.0652 11.627 61.2428 12.092C61.4204 12.5577 61.5094 13.0627 61.5094 13.6082Z" fill="#FBFBFB"/>
<path d="M68.7083 17.3284H67.346V14.076H63.9375V17.3284H62.5752V9.88619H63.9375V13.0875H67.346V9.88619H68.7083V17.3284Z" fill="#FBFBFB"/>
<path d="M70.9964 9.44414C71.1138 9.63655 71.2002 9.82863 71.2557 10.0204C71.3112 10.2128 71.3386 10.4049 71.3386 10.5973C71.3386 10.9402 71.2541 11.2682 71.0844 11.5804C70.9154 11.8923 70.6712 12.1808 70.3529 12.4451L69.9655 12.2029C69.9319 12.1828 69.9081 12.1577 69.8948 12.1283C69.8816 12.0993 69.8745 12.0709 69.8745 12.0435C69.8745 11.9785 69.8964 11.9233 69.94 11.8788C69.9839 11.8273 70.0297 11.7682 70.0784 11.7012C70.1271 11.6342 70.1716 11.5603 70.2119 11.4798C70.2519 11.3993 70.2851 11.3108 70.31 11.2151C70.3354 11.1191 70.3474 11.0161 70.3474 10.9059C70.3474 10.789 70.329 10.6646 70.2925 10.5326C70.2555 10.4006 70.1935 10.261 70.1061 10.1134C70.0761 10.0689 70.0609 10.022 70.0609 9.97417C70.0609 9.8646 70.1229 9.7877 70.2467 9.74249L70.9964 9.44414Z" fill="#FBFBFB"/>
<path d="M77.5113 13.6073C77.5113 13.1987 77.4575 12.8327 77.3498 12.508C77.2428 12.1842 77.0903 11.9093 76.893 11.6849C76.6951 11.4598 76.4543 11.2875 76.1716 11.1674C75.8882 11.0476 75.5687 10.9872 75.2135 10.9872H73.8008V16.2268H75.2135C75.5687 16.2268 75.8882 16.167 76.1716 16.0466C76.4543 15.9264 76.6951 15.7542 76.893 15.5298C77.0903 15.3047 77.2428 15.0304 77.3498 14.706C77.4575 14.3819 77.5113 14.0152 77.5113 13.6073ZM78.8934 13.6073C78.8934 14.1529 78.8047 14.6538 78.6274 15.1099C78.4498 15.5664 78.1996 15.9591 77.8782 16.2888C77.5565 16.6182 77.1693 16.8736 76.7164 17.0552C76.2641 17.2377 75.7631 17.3284 75.2135 17.3284H72.4385V9.88619H75.2135C75.7631 9.88619 76.2641 9.97793 76.7164 10.1611C77.1693 10.3446 77.5565 10.6004 77.8782 10.9281C78.1996 11.2562 78.4498 11.6482 78.6274 12.1043C78.8047 12.5608 78.8934 13.0618 78.8934 13.6073Z" fill="#FBFBFB"/>
<path d="M85.1279 14.436V17.3284H83.7756V14.436L81.126 9.88651H82.3175C82.4351 9.88651 82.5277 9.91556 82.5963 9.97364C82.6653 10.0321 82.723 10.1057 82.7701 10.1951L84.1021 12.6806C84.1792 12.8288 84.2462 12.9684 84.3036 13.1004C84.3603 13.2327 84.4122 13.3624 84.4593 13.4892C84.5025 13.3588 84.5522 13.2271 84.6073 13.0951C84.6627 12.9631 84.7288 12.8251 84.8062 12.6806L86.1282 10.1951C86.1653 10.1198 86.2201 10.0492 86.2943 9.9842C86.3678 9.91886 86.4619 9.88651 86.576 9.88651H87.7723L85.1279 14.436Z" fill="#FBFBFB"/>
<path d="M93.6597 13.6082C93.6597 13.1996 93.6071 12.8336 93.5011 12.5089C93.396 12.1851 93.2438 11.9095 93.0465 11.6834C92.8486 11.4567 92.6081 11.2838 92.3251 11.1633C92.0417 11.0432 91.7222 10.9834 91.367 10.9834C91.012 10.9834 90.6919 11.0432 90.4069 11.1633C90.1223 11.2838 89.8799 11.4567 89.6803 11.6834C89.4811 11.9095 89.328 12.1851 89.2203 12.5089C89.1133 12.8336 89.0594 13.1996 89.0594 13.6082C89.0594 14.0161 89.1133 14.3828 89.2203 14.7069C89.328 15.0313 89.4811 15.3056 89.6803 15.5306C89.8799 15.7551 90.1223 15.9273 90.4069 16.0475C90.6919 16.1679 91.012 16.2277 91.367 16.2277C91.7222 16.2277 92.0417 16.1679 92.3251 16.0475C92.6081 15.9273 92.8486 15.7551 93.0465 15.5306C93.2438 15.3056 93.396 15.0313 93.5011 14.7069C93.6071 14.3828 93.6597 14.0161 93.6597 13.6082ZM95.0475 13.6082C95.0475 14.1537 94.9585 14.6587 94.7809 15.1237C94.6033 15.5887 94.3534 15.9907 94.0317 16.3306C93.71 16.6706 93.3231 16.9353 92.8705 17.126C92.4176 17.3161 91.9166 17.4115 91.367 17.4115C90.8176 17.4115 90.3154 17.3161 89.8612 17.126C89.4073 16.9353 89.0185 16.6706 88.6951 16.3306C88.3718 15.9907 88.1213 15.5887 87.9437 15.1237C87.7661 14.6587 87.6768 14.1537 87.6768 13.6082C87.6768 13.0627 87.7661 12.5577 87.9437 12.092C88.1213 11.627 88.3718 11.225 88.6951 10.8851C89.0185 10.5458 89.4073 10.2805 89.8612 10.0904C90.3154 9.89962 90.8176 9.80424 91.367 9.80424C91.9166 9.80424 92.4176 9.90094 92.8705 10.0927C93.3231 10.2851 93.71 10.5498 94.0317 10.8881C94.3534 11.2263 94.6033 11.627 94.7809 12.092C94.9585 12.5577 95.0475 13.0627 95.0475 13.6082Z" fill="#FBFBFB"/>
<path d="M99.039 16.2122C99.3004 16.2122 99.5341 16.1676 99.7401 16.0782C99.9461 15.9894 100.12 15.864 100.263 15.7029C100.405 15.5419 100.514 15.3458 100.59 15.1158C100.665 14.8861 100.703 14.6287 100.703 14.3442V9.88708H102.055V14.3442C102.055 14.7867 101.986 15.196 101.847 15.5712C101.708 15.9475 101.507 16.2712 101.246 16.5445C100.984 16.8168 100.667 17.03 100.296 17.1821C99.9235 17.3349 99.5048 17.4115 99.039 17.4115C98.5728 17.4115 98.1537 17.3349 97.782 17.1821C97.41 17.03 97.0941 16.8168 96.8342 16.5445C96.5744 16.2712 96.3749 15.9475 96.2362 15.5712C96.0967 15.196 96.0273 14.7867 96.0273 14.3442V9.88708H97.3797V14.3389C97.3797 14.6237 97.4174 14.8808 97.4925 15.1105C97.5683 15.3409 97.6766 15.5369 97.8172 15.6999C97.9577 15.8633 98.1312 15.9894 98.3371 16.0782C98.5438 16.1676 98.7775 16.2122 99.039 16.2122Z" fill="#FBFBFB"/>
<path d="M107.328 11.2402C107.291 11.3161 107.249 11.3686 107.2 11.4003C107.151 11.431 107.093 11.4462 107.027 11.4462C106.96 11.4462 106.884 11.4197 106.8 11.3663C106.717 11.3131 106.618 11.2537 106.504 11.1887C106.39 11.1234 106.257 11.0643 106.104 11.0112C105.952 10.9584 105.772 10.9316 105.564 10.9316C105.376 10.9316 105.213 10.9547 105.073 11.0009C104.935 11.0471 104.817 11.1118 104.722 11.194C104.626 11.2762 104.555 11.3752 104.508 11.49C104.461 11.6049 104.438 11.7313 104.438 11.8679C104.438 12.0432 104.485 12.1891 104.581 12.3056C104.677 12.4224 104.803 12.5217 104.961 12.6042C105.118 12.6864 105.298 12.7603 105.499 12.8257C105.7 12.8907 105.905 12.96 106.114 13.0343C106.324 13.1075 106.529 13.1933 106.73 13.291C106.931 13.3887 107.11 13.5125 107.268 13.662C107.426 13.8112 107.552 13.994 107.648 14.2102C107.743 14.4264 107.791 14.6887 107.791 14.9973C107.791 15.3339 107.735 15.6488 107.622 15.9419C107.51 16.2353 107.346 16.491 107.13 16.7089C106.914 16.927 106.65 17.098 106.338 17.2237C106.026 17.3485 105.669 17.4115 105.267 17.4115C105.036 17.4115 104.808 17.3884 104.583 17.3422C104.359 17.296 104.144 17.2297 103.937 17.1435C103.731 17.0577 103.539 16.9554 103.359 16.8353C103.18 16.7148 103.02 16.5811 102.879 16.4336L103.271 15.7696C103.308 15.7217 103.353 15.6815 103.405 15.6488C103.457 15.6161 103.514 15.5996 103.578 15.5996C103.662 15.5996 103.752 15.6346 103.849 15.7052C103.946 15.7755 104.061 15.8537 104.194 15.9396C104.326 16.025 104.482 16.1032 104.661 16.1735C104.841 16.2442 105.056 16.2788 105.307 16.2788C105.693 16.2788 105.991 16.1854 106.202 15.999C106.413 15.8118 106.519 15.5429 106.519 15.1927C106.519 14.9973 106.471 14.8382 106.376 14.7141C106.28 14.591 106.153 14.4867 105.996 14.4029C105.839 14.3194 105.66 14.2475 105.458 14.1897C105.257 14.131 105.053 14.0676 104.845 13.999C104.637 13.9303 104.433 13.8478 104.232 13.7518C104.031 13.6561 103.851 13.5303 103.694 13.3765C103.536 13.2217 103.41 13.0287 103.314 12.7973C103.218 12.5656 103.171 12.2801 103.171 11.9402C103.171 11.6689 103.223 11.4049 103.329 11.1478C103.435 10.89 103.589 10.6623 103.792 10.4633C103.994 10.2643 104.243 10.1049 104.538 9.98477C104.833 9.8643 105.17 9.80391 105.549 9.80391C105.978 9.80391 106.373 9.87288 106.735 10.0102C107.097 10.1475 107.406 10.3396 107.661 10.5864L107.328 11.2402Z" fill="#FBFBFB"/>
<path d="M113.412 9.88619V10.9872H110.189V13.0512H112.729V14.1165H110.189V16.2218H113.412V17.3284H108.827V9.88619H113.412Z" fill="#FBFBFB"/>
<path d="M119.168 9.88619V10.9872H115.945V13.1901H118.665V14.2967H115.945V17.3284H114.583V9.88619H119.168Z" fill="#FBFBFB"/>
<path d="M123.853 14.5182H126.171L125.286 12.0426C125.246 11.933 125.202 11.8033 125.153 11.6542C125.105 11.505 125.057 11.3426 125.01 11.1674C124.963 11.3426 124.917 11.5053 124.872 11.6565C124.826 11.8076 124.782 11.9397 124.739 12.0529L123.853 14.5182ZM128.559 17.3284H127.514C127.396 17.3284 127.3 17.2981 127.224 17.2383C127.149 17.1786 127.095 17.104 127.061 17.0146L126.518 15.4961H123.506L122.964 17.0146C122.937 17.0931 122.884 17.1654 122.805 17.2307C122.726 17.2958 122.63 17.3284 122.516 17.3284H121.465L124.321 9.88619H125.704L128.559 17.3284Z" fill="#FBFBFB"/>
<path d="M130.66 16.1859H133.571V17.3284H129.308V9.88619H130.66V16.1859Z" fill="#FBFBFB"/>
<path d="M133.381 13.69H135.985V14.7501H133.381V13.69Z" fill="#FBFBFB"/>
<path d="M141.118 11.2402C141.08 11.3161 141.038 11.3686 140.989 11.4003C140.941 11.431 140.883 11.4462 140.816 11.4462C140.749 11.4462 140.673 11.4197 140.589 11.3663C140.506 11.3131 140.407 11.2537 140.293 11.1887C140.179 11.1234 140.046 11.0643 139.893 11.0112C139.741 10.9584 139.561 10.9316 139.353 10.9316C139.165 10.9316 139.002 10.9547 138.863 11.0009C138.724 11.0471 138.606 11.1118 138.511 11.194C138.415 11.2762 138.344 11.3752 138.297 11.49C138.25 11.6049 138.227 11.7313 138.227 11.8679C138.227 12.0432 138.274 12.1891 138.37 12.3056C138.466 12.4224 138.592 12.5217 138.75 12.6042C138.907 12.6864 139.087 12.7603 139.288 12.8257C139.489 12.8907 139.694 12.96 139.903 13.0343C140.113 13.1075 140.318 13.1933 140.52 13.291C140.72 13.3887 140.899 13.5125 141.057 13.662C141.215 13.8112 141.341 13.994 141.437 14.2102C141.532 14.4264 141.58 14.6887 141.58 14.9973C141.58 15.3339 141.524 15.6488 141.412 15.9419C141.299 16.2353 141.135 16.491 140.919 16.7089C140.703 16.927 140.439 17.098 140.127 17.2237C139.815 17.3485 139.458 17.4115 139.056 17.4115C138.825 17.4115 138.597 17.3884 138.373 17.3422C138.148 17.296 137.933 17.2297 137.726 17.1435C137.52 17.0577 137.328 16.9554 137.148 16.8353C136.969 16.7148 136.809 16.5811 136.668 16.4336L137.06 15.7696C137.097 15.7217 137.142 15.6815 137.194 15.6488C137.246 15.6161 137.304 15.5996 137.367 15.5996C137.451 15.5996 137.541 15.6346 137.638 15.7052C137.736 15.7755 137.85 15.8537 137.983 15.9396C138.115 16.025 138.271 16.1032 138.451 16.1735C138.63 16.2442 138.845 16.2788 139.096 16.2788C139.482 16.2788 139.78 16.1854 139.991 15.999C140.202 15.8118 140.308 15.5429 140.308 15.1927C140.308 14.9973 140.26 14.8382 140.165 14.7141C140.069 14.591 139.942 14.4867 139.785 14.4029C139.628 14.3194 139.449 14.2475 139.247 14.1897C139.046 14.131 138.842 14.0676 138.634 13.999C138.426 13.9303 138.222 13.8478 138.021 13.7518C137.82 13.6561 137.64 13.5303 137.483 13.3765C137.325 13.2217 137.199 13.0287 137.103 12.7973C137.007 12.5656 136.96 12.2801 136.96 11.9402C136.96 11.6689 137.012 11.4049 137.118 11.1478C137.224 10.89 137.378 10.6623 137.581 10.4633C137.784 10.2643 138.032 10.1049 138.327 9.98477C138.622 9.8643 138.959 9.80391 139.338 9.80391C139.767 9.80391 140.162 9.87288 140.524 10.0102C140.886 10.1475 141.195 10.3396 141.45 10.5864L141.118 11.2402Z" fill="#FBFBFB"/>
<path d="M148.748 17.3284H147.386V14.076H143.978V17.3284H142.615V9.88619H143.978V13.0875H147.386V9.88619H148.748V17.3284Z" fill="#FBFBFB"/>
<path d="M151.569 14.0651V16.2476H152.941C153.193 16.2476 153.403 16.2165 153.572 16.1552C153.741 16.0928 153.877 16.0106 153.98 15.9076C154.081 15.805 154.156 15.6849 154.201 15.5476C154.246 15.4099 154.268 15.2644 154.268 15.1096C154.268 14.9486 154.244 14.8037 154.193 14.675C154.143 14.5466 154.064 14.4364 153.957 14.3459C153.85 14.2545 153.713 14.1852 153.545 14.1373C153.377 14.0895 153.175 14.0651 152.936 14.0651H151.569ZM151.569 13.108H152.65C153.109 13.108 153.457 13.0222 153.696 12.8505C153.933 12.6793 154.053 12.4063 154.053 12.0321C154.053 11.6446 153.945 11.368 153.73 11.2033C153.516 11.0387 153.181 10.9565 152.725 10.9565H151.569V13.108ZM150.217 17.3284V9.88619H152.725C153.201 9.88619 153.608 9.93239 153.944 10.0248C154.281 10.1179 154.558 10.2499 154.774 10.4212C154.99 10.5928 155.148 10.8007 155.249 11.0439C155.35 11.2875 155.4 11.5624 155.4 11.8674C155.4 12.0426 155.374 12.2096 155.324 12.3694C155.274 12.5288 155.196 12.6779 155.09 12.8172C154.985 12.9558 154.851 13.0819 154.688 13.1958C154.526 13.3086 154.332 13.4047 154.108 13.4835C155.107 13.7132 155.606 14.2657 155.606 15.1413C155.606 15.4568 155.548 15.7482 155.43 16.0159C155.313 16.2835 155.142 16.5146 154.917 16.7083C154.692 16.902 154.416 17.0542 154.087 17.1637C153.759 17.2733 153.384 17.3284 152.961 17.3284H150.217Z" fill="#FBFBFB"/>
<path d="M158.452 14.5182H160.77L159.885 12.0426C159.844 11.933 159.801 11.8033 159.752 11.6542C159.703 11.505 159.656 11.3426 159.608 11.1674C159.562 11.3426 159.515 11.5053 159.47 11.6565C159.425 11.8076 159.381 11.9397 159.337 12.0529L158.452 14.5182ZM163.157 17.3284H162.112C161.995 17.3284 161.898 17.2981 161.823 17.2383C161.748 17.1786 161.694 17.104 161.66 17.0146L161.117 15.4961H158.105L157.562 17.0146C157.535 17.0931 157.482 17.1654 157.404 17.2307C157.325 17.2958 157.229 17.3284 157.115 17.3284H156.064L158.92 9.88619H160.302L163.157 17.3284Z" fill="#FBFBFB"/>
<path d="M168.29 9.88619V11.0231H166.104V17.3284H164.751V11.0231H162.555V9.88619H168.29Z" fill="#FBFBFB"/>
<path d="M170.095 14.5182H172.413L171.528 12.0426C171.488 11.933 171.444 11.8033 171.395 11.6542C171.346 11.505 171.299 11.3426 171.252 11.1674C171.205 11.3426 171.158 11.5053 171.113 11.6565C171.068 11.8076 171.024 11.9397 170.98 12.0529L170.095 14.5182ZM174.801 17.3284H173.755C173.638 17.3284 173.541 17.2981 173.466 17.2383C173.391 17.1786 173.337 17.104 173.303 17.0146L172.76 15.4961H169.748L169.205 17.0146C169.178 17.0931 169.125 17.1654 169.047 17.2307C168.968 17.2958 168.872 17.3284 168.758 17.3284H167.707L170.563 9.88619H171.945L174.801 17.3284Z" fill="#FBFBFB"/>
<path d="M179.933 9.88619V11.0231H177.747V17.3284H176.394V11.0231H174.198V9.88619H179.933Z" fill="#FBFBFB"/>
<path d="M126.144 28.264H129.042V29.3561H124.797V22.2425H126.144V28.264Z" fill="#FBFBFB"/>
<path d="M132.789 28.264H135.687V29.3561H131.442V22.2425H132.789V28.264Z" fill="#FBFBFB"/>
<path d="M142.649 27.8001C142.723 27.8001 142.786 27.8278 142.839 27.8834L143.37 28.4493C143.076 28.8067 142.715 29.0805 142.286 29.2707C141.857 29.461 141.342 29.5559 140.741 29.5559C140.204 29.5559 139.721 29.466 139.292 29.2856C138.864 29.1054 138.497 28.854 138.194 28.5326C137.89 28.2117 137.657 27.8278 137.495 27.3818C137.333 26.9357 137.252 26.449 137.252 25.9206C137.252 25.3859 137.342 24.8966 137.523 24.4521C137.703 24.008 137.956 23.6247 138.284 23.3033C138.611 22.9821 139.002 22.732 139.458 22.5531C139.913 22.3742 140.416 22.2846 140.967 22.2846C141.504 22.2846 141.974 22.3698 142.376 22.5383C142.778 22.7077 143.123 22.9313 143.41 23.2099L142.959 23.825C142.933 23.8641 142.898 23.8985 142.857 23.9282C142.815 23.9575 142.757 23.9723 142.684 23.9723C142.607 23.9723 142.529 23.9427 142.449 23.884C142.368 23.825 142.267 23.761 142.143 23.6919C142.02 23.6231 141.864 23.5591 141.675 23.5001C141.486 23.4411 141.247 23.4118 140.957 23.4118C140.617 23.4118 140.304 23.4701 140.018 23.5862C139.733 23.7029 139.488 23.8692 139.282 24.0856C139.077 24.3023 138.917 24.5654 138.802 24.8752C138.687 25.1853 138.629 25.5335 138.629 25.9206C138.629 26.3209 138.687 26.6764 138.802 26.9884C138.917 27.2998 139.073 27.5622 139.27 27.7752C139.467 27.9887 139.698 28.1515 139.966 28.2647C140.233 28.378 140.52 28.4348 140.827 28.4348C141.01 28.4348 141.176 28.4244 141.325 28.4048C141.473 28.3853 141.61 28.3543 141.735 28.3111C141.86 28.2688 141.979 28.214 142.091 28.1465C142.202 28.0796 142.314 27.9966 142.423 27.8979C142.457 27.8685 142.492 27.8449 142.529 27.8266C142.565 27.8092 142.605 27.8001 142.649 27.8001Z" fill="#FBFBFB"/>
<path d="M130.976 28.8111C130.976 28.5278 130.742 28.2982 130.454 28.2982C130.165 28.2982 129.931 28.5278 129.931 28.8111C129.931 29.0944 130.165 29.324 130.454 29.324C130.742 29.324 130.976 29.0944 130.976 28.8111Z" fill="#FBFBFB"/>
<path d="M137.292 28.8111C137.292 28.5278 137.059 28.2982 136.77 28.2982C136.481 28.2982 136.248 28.5278 136.248 28.8111C136.248 29.0944 136.481 29.324 136.77 29.324C137.059 29.324 137.292 29.0944 137.292 28.8111Z" fill="#FBFBFB"/>
<path d="M46.4421 27.4206C46.4421 27.601 46.4732 27.7635 46.5371 27.908C46.6004 28.0524 46.687 28.1745 46.7975 28.2742C46.9076 28.3745 47.035 28.4515 47.1801 28.5058C47.3252 28.5597 47.4796 28.5868 47.6433 28.5868C47.937 28.5868 48.2047 28.5414 48.4468 28.4515C48.6885 28.3613 48.91 28.2357 49.1103 28.0748L47.2077 26.1566C46.9409 26.3269 46.7461 26.5187 46.6248 26.7323C46.5025 26.9452 46.4421 27.1748 46.4421 27.4206ZM48.1842 22.2846C48.4779 22.2846 48.7405 22.3291 48.9726 22.4175C49.2043 22.5064 49.403 22.6241 49.5683 22.772C49.7337 22.9197 49.863 23.0884 49.9587 23.2786C50.0537 23.4689 50.1096 23.6657 50.1266 23.8689L49.3401 24.0313C49.3305 24.0342 49.3192 24.0361 49.308 24.0361H49.2749C49.2184 24.0361 49.1674 24.0206 49.1225 23.9897C49.0775 23.9585 49.0419 23.9099 49.0146 23.8439C48.9848 23.7591 48.9466 23.6777 48.9 23.6007C48.8528 23.5238 48.7963 23.4562 48.7296 23.3992C48.6628 23.3421 48.5845 23.2957 48.4946 23.2616C48.4041 23.2269 48.301 23.2096 48.1842 23.2096C48.0436 23.2096 47.9184 23.2332 47.8086 23.2809C47.6985 23.3285 47.6051 23.3922 47.5281 23.4727C47.4513 23.5531 47.3932 23.6465 47.3528 23.7534C47.313 23.86 47.2928 23.972 47.2928 24.0903C47.2928 24.1887 47.304 24.284 47.3252 24.3755C47.347 24.4673 47.381 24.5591 47.4282 24.6512C47.4751 24.743 47.5354 24.8376 47.6109 24.9338C47.6857 25.0307 47.7784 25.1348 47.8885 25.2461L49.8107 27.2095C49.9208 27.0029 50.0094 26.7843 50.0762 26.555C50.1433 26.3253 50.1863 26.0925 50.2065 25.8566C50.2129 25.7812 50.2383 25.72 50.2813 25.6742C50.3246 25.6285 50.385 25.6058 50.4617 25.6058H51.2376C51.234 26.0383 51.1708 26.4515 51.0475 26.8455C50.9236 27.2389 50.7467 27.601 50.5169 27.9323L52.0336 29.477H50.8222C50.7589 29.477 50.7024 29.4739 50.6546 29.4676C50.6061 29.4606 50.5602 29.4483 50.5169 29.43C50.4732 29.4127 50.4318 29.3887 50.3914 29.3587C50.3516 29.3294 50.3095 29.2922 50.2665 29.2461L49.7658 28.7389C49.4454 28.9947 49.0891 29.1953 48.6971 29.3395C48.3049 29.484 47.8805 29.5559 47.4231 29.5559C47.1425 29.5559 46.869 29.5089 46.6023 29.4155C46.3349 29.3222 46.0964 29.1868 45.8861 29.0095C45.6759 28.8329 45.5067 28.619 45.3783 28.3676C45.2496 28.1168 45.1851 27.8338 45.1851 27.519C45.1851 27.2995 45.222 27.0906 45.2952 26.8919C45.369 26.6938 45.4708 26.5092 45.6011 26.3383C45.7308 26.1679 45.8852 26.014 46.0636 25.8764C46.2421 25.7383 46.4386 25.6206 46.6524 25.5219C46.4748 25.2758 46.3458 25.0357 46.2639 24.8014C46.1824 24.567 46.1413 24.3332 46.1413 24.1001C46.1413 23.8544 46.1875 23.6206 46.279 23.3992C46.3705 23.1777 46.5044 22.9853 46.6793 22.8212C46.8546 22.6569 47.0693 22.5269 47.3229 22.4301C47.5762 22.3332 47.8638 22.2846 48.1842 22.2846Z" fill="#FBFBFB"/>
<path d="M56.0691 25.9402H57.0799C57.3271 25.9402 57.5425 25.9096 57.7258 25.8491C57.9094 25.7885 58.0616 25.7014 58.1813 25.5882C58.3017 25.4749 58.3915 25.3374 58.4516 25.1749C58.5119 25.0125 58.5421 24.8314 58.5421 24.6314C58.5421 24.4412 58.5119 24.2692 58.4516 24.1147C58.3915 23.9607 58.3017 23.8292 58.1813 23.7213C58.0616 23.6131 57.9094 23.5304 57.7258 23.4727C57.5425 23.4156 57.3271 23.3866 57.0799 23.3866H56.0691V25.9402ZM56.0691 26.9733V29.4771H54.7222V22.3636H57.0799C57.564 22.3636 57.9826 22.4191 58.337 22.5308C58.6907 22.6421 58.9828 22.798 59.2127 22.9983C59.4428 23.198 59.6133 23.4377 59.7234 23.7159C59.8335 23.9951 59.8887 24.3002 59.8887 24.6314C59.8887 24.9756 59.83 25.2916 59.7131 25.5784C59.5966 25.8655 59.421 26.1125 59.1876 26.3191C58.9539 26.5254 58.6618 26.6863 58.3116 26.8008C57.9614 26.9156 57.5505 26.9733 57.0799 26.9733H56.0691Z" fill="#FBFBFB"/>
<path d="M61.8355 26.791H64.1432L63.2624 24.4248C63.2219 24.32 63.1783 24.1961 63.1298 24.0535C63.0813 23.9109 63.0338 23.7557 62.9869 23.5882C62.9404 23.7557 62.8942 23.9112 62.8492 24.0557C62.8043 24.2002 62.76 24.3263 62.717 24.4345L61.8355 26.791ZM66.5208 29.4771H65.4802C65.363 29.4771 65.267 29.4481 65.1919 29.391C65.1171 29.3339 65.0632 29.2626 65.0295 29.1771L64.4886 27.7257H61.4898L60.9495 29.1771C60.9226 29.2522 60.8699 29.3213 60.7916 29.3837C60.7133 29.4459 60.6173 29.4771 60.5037 29.4771H59.4575L62.301 22.3636H63.6777L66.5208 29.4771Z" fill="#FBFBFB"/>
<path d="M68.6584 25.7484H69.4995C69.7531 25.7484 69.9742 25.7172 70.1623 25.6544C70.3514 25.5923 70.5065 25.5061 70.6278 25.3964C70.7501 25.2866 70.8409 25.1563 70.901 25.0052C70.961 24.8547 70.9915 24.6888 70.9915 24.5087C70.9915 24.1475 70.8698 23.8708 70.6278 23.6771C70.3861 23.4834 70.0166 23.3866 69.5197 23.3866H68.6584V25.7484ZM68.6584 26.6976V29.4771H67.3115V22.3639H69.5197C70.0134 22.3639 70.4362 22.4137 70.7886 22.5137C71.1404 22.6134 71.429 22.7538 71.6544 22.9346C71.8797 23.1144 72.045 23.3301 72.1497 23.5809C72.2553 23.8323 72.3076 24.1084 72.3076 24.4103C72.3076 24.6497 72.272 24.8762 72.2001 25.0888C72.1285 25.3024 72.0248 25.4961 71.8893 25.6699C71.7545 25.8434 71.5876 25.9957 71.3889 26.1273C71.1908 26.2585 70.9642 26.3632 70.7109 26.4418C70.8807 26.5371 71.0278 26.6727 71.1517 26.85L72.9637 29.4771H71.7516C71.6354 29.4771 71.5356 29.4547 71.4541 29.408C71.3722 29.3623 71.3029 29.2967 71.2467 29.2118L69.7248 26.9339C69.6677 26.8484 69.6054 26.7878 69.537 26.7516C69.4683 26.7159 69.3675 26.6976 69.234 26.6976H68.6584Z" fill="#FBFBFB"/>
<path d="M78.6453 22.3639V23.4506H76.468V29.4771H75.1211V23.4506H72.9341V22.3639H78.6453Z" fill="#FBFBFB"/>
<path d="M80.3571 22.3711C80.3969 22.3756 80.4332 22.386 80.4649 22.4005C80.4964 22.4153 80.5269 22.4368 80.5574 22.4645C80.5876 22.4923 80.6203 22.5292 80.6572 22.5749L84.4566 27.3323C84.4434 27.2175 84.4341 27.1052 84.4296 26.9954C84.4245 26.8856 84.4223 26.7831 84.4223 26.6875V22.3639H85.6084V29.4771H84.9124C84.8059 29.4771 84.7169 29.4607 84.6473 29.4279C84.577 29.3951 84.5086 29.3361 84.4418 29.2506L80.6572 24.5131C80.6675 24.6185 80.6752 24.7226 80.6797 24.8257C80.6848 24.9292 80.6871 25.0232 80.6871 25.1087V29.4771H79.501V22.3639H80.2069C80.2666 22.3639 80.3166 22.3661 80.3571 22.3711Z" fill="#FBFBFB"/>
<path d="M91.6359 22.3639V23.4163H88.4269V25.3891H90.9551V26.4074H88.4269V28.4197H91.6359V29.4771H87.0703V22.3639H91.6359Z" fill="#FBFBFB"/>
<path d="M94.1943 25.7484H95.0353C95.2889 25.7484 95.51 25.7172 95.6982 25.6544C95.8872 25.5923 96.0423 25.5061 96.1636 25.3964C96.2859 25.2866 96.3768 25.1563 96.4368 25.0052C96.4968 24.8547 96.5273 24.6888 96.5273 24.5087C96.5273 24.1475 96.4056 23.8708 96.1636 23.6771C95.9219 23.4834 95.5524 23.3866 95.0555 23.3866H94.1943V25.7484ZM94.1943 26.6976V29.4771H92.8477V22.3639H95.0555C95.5492 22.3639 95.972 22.4137 96.3244 22.5137C96.6762 22.6134 96.9648 22.7538 97.1902 22.9346C97.4155 23.1144 97.5808 23.3301 97.6855 23.5809C97.7911 23.8323 97.8434 24.1084 97.8434 24.4103C97.8434 24.6497 97.8078 24.8762 97.7359 25.0888C97.6643 25.3024 97.5606 25.4961 97.4251 25.6699C97.2903 25.8434 97.1234 25.9957 96.9247 26.1273C96.7266 26.2585 96.5 26.3632 96.2467 26.4418C96.4166 26.5371 96.5636 26.6727 96.6875 26.85L98.4995 29.4771H97.2874C97.1712 29.4771 97.0714 29.4547 96.9899 29.408C96.908 29.3623 96.8387 29.2967 96.7825 29.2118L95.2606 26.9339C95.2035 26.8484 95.1412 26.7878 95.0728 26.7516C95.0041 26.7159 94.9034 26.6976 94.7698 26.6976H94.1943Z" fill="#FBFBFB"/>
<path d="M103.24 23.6572C103.203 23.7297 103.16 23.7799 103.112 23.8099C103.063 23.8395 103.006 23.854 102.94 23.854C102.873 23.854 102.797 23.8288 102.714 23.7777C102.631 23.7269 102.532 23.6701 102.419 23.608C102.305 23.5455 102.172 23.4891 102.021 23.4383C101.869 23.3878 101.69 23.3622 101.483 23.3622C101.296 23.3622 101.133 23.3843 100.994 23.4285C100.856 23.4727 100.739 23.5345 100.644 23.613C100.549 23.6916 100.478 23.7862 100.432 23.896C100.384 24.0058 100.361 24.1266 100.361 24.2572C100.361 24.4247 100.408 24.5641 100.504 24.6755C100.599 24.7872 100.725 24.8821 100.882 24.961C101.039 25.0395 101.217 25.1102 101.418 25.1726C101.618 25.2348 101.822 25.301 102.031 25.3717C102.239 25.442 102.444 25.5241 102.644 25.6174C102.844 25.7108 103.022 25.8291 103.18 25.972C103.336 26.1146 103.462 26.2894 103.558 26.496C103.653 26.7026 103.7 26.9534 103.7 27.2483C103.7 27.5698 103.644 27.8711 103.532 28.1512C103.42 28.4316 103.257 28.6761 103.042 28.8843C102.827 29.0928 102.564 29.2562 102.254 29.3764C101.943 29.4957 101.588 29.5559 101.187 29.5559C100.957 29.5559 100.73 29.5338 100.506 29.4897C100.283 29.4455 100.069 29.3821 99.8631 29.2998C99.658 29.2177 99.466 29.1199 99.2875 29.0048C99.1091 28.89 98.9495 28.7622 98.8096 28.6212L99.1999 27.9865C99.2362 27.9408 99.2808 27.9023 99.3325 27.8711C99.3845 27.8398 99.4419 27.8241 99.5052 27.8241C99.589 27.8241 99.6785 27.8575 99.7755 27.925C99.8721 27.9922 99.9864 28.067 100.118 28.149C100.25 28.2307 100.406 28.3051 100.584 28.3726C100.763 28.4401 100.977 28.4733 101.227 28.4733C101.611 28.4733 101.908 28.384 102.118 28.2058C102.328 28.0269 102.434 27.7698 102.434 27.4351C102.434 27.2483 102.386 27.096 102.291 26.9777C102.196 26.86 102.07 26.7603 101.913 26.6802C101.756 26.6004 101.578 26.5316 101.377 26.4764C101.177 26.4203 100.974 26.3597 100.767 26.2941C100.56 26.2285 100.356 26.1496 100.156 26.0578C99.9559 25.9663 99.7771 25.8461 99.6204 25.6991C99.4631 25.5512 99.3376 25.3667 99.2426 25.1455C99.1469 24.9241 99.0998 24.6512 99.0998 24.3263C99.0998 24.067 99.1521 23.8146 99.2577 23.5689C99.3623 23.3225 99.5161 23.1048 99.718 22.9146C99.9199 22.7244 100.168 22.572 100.461 22.4572C100.755 22.3421 101.091 22.2843 101.468 22.2843C101.895 22.2843 102.289 22.3503 102.649 22.4815C103.009 22.6127 103.316 22.7963 103.57 23.0323L103.24 23.6572Z" fill="#FBFBFB"/>
<path d="M111.64 27.8001C111.714 27.8001 111.777 27.8278 111.83 27.8834L112.361 28.4493C112.068 28.8067 111.706 29.0805 111.277 29.2707C110.848 29.461 110.334 29.5559 109.733 29.5559C109.195 29.5559 108.712 29.466 108.284 29.2856C107.855 29.1054 107.488 28.854 107.185 28.5326C106.881 28.2117 106.648 27.8278 106.486 27.3818C106.324 26.9357 106.244 26.449 106.244 25.9206C106.244 25.3859 106.334 24.8966 106.514 24.4521C106.694 24.008 106.948 23.6247 107.275 23.3033C107.602 22.9821 107.993 22.732 108.449 22.5531C108.904 22.3742 109.407 22.2846 109.958 22.2846C110.495 22.2846 110.965 22.3698 111.367 22.5383C111.77 22.7077 112.114 22.9313 112.401 23.2099L111.95 23.825C111.924 23.8641 111.889 23.8985 111.848 23.9282C111.806 23.9575 111.748 23.9723 111.675 23.9723C111.599 23.9723 111.52 23.9427 111.44 23.884C111.359 23.825 111.258 23.761 111.134 23.6919C111.011 23.6231 110.855 23.5591 110.666 23.5001C110.478 23.4411 110.239 23.4118 109.948 23.4118C109.608 23.4118 109.295 23.4701 109.009 23.5862C108.724 23.7029 108.479 23.8692 108.274 24.0856C108.068 24.3023 107.908 24.5654 107.793 24.8752C107.678 25.1853 107.62 25.5335 107.62 25.9206C107.62 26.3209 107.678 26.6764 107.793 26.9884C107.908 27.2998 108.064 27.5622 108.261 27.7752C108.458 27.9887 108.69 28.1515 108.957 28.2647C109.224 28.378 109.511 28.4348 109.818 28.4348C110.001 28.4348 110.168 28.4244 110.316 28.4048C110.464 28.3853 110.602 28.3543 110.726 28.3111C110.851 28.2688 110.97 28.214 111.082 28.1465C111.194 28.0796 111.305 27.9966 111.415 27.8979C111.448 27.8685 111.483 27.8449 111.52 27.8266C111.557 27.8092 111.597 27.8001 111.64 27.8001Z" fill="#FBFBFB"/>
<path d="M118.938 25.9206C118.938 25.5301 118.886 25.1802 118.78 24.8698C118.676 24.5603 118.524 24.2969 118.328 24.0809C118.131 23.8641 117.891 23.6988 117.609 23.5837C117.327 23.4689 117.009 23.4118 116.655 23.4118C116.302 23.4118 115.983 23.4689 115.7 23.5837C115.416 23.6988 115.175 23.8641 114.976 24.0809C114.778 24.2969 114.625 24.5603 114.518 24.8698C114.411 25.1802 114.358 25.5301 114.358 25.9206C114.358 26.3105 114.411 26.661 114.518 26.9707C114.625 27.2808 114.778 27.543 114.976 27.7581C115.175 27.9726 115.416 28.1373 115.7 28.2521C115.983 28.3673 116.302 28.4244 116.655 28.4244C117.009 28.4244 117.327 28.3673 117.609 28.2521C117.891 28.1373 118.131 27.9726 118.328 27.7581C118.524 27.543 118.676 27.2808 118.78 26.9707C118.886 26.661 118.938 26.3105 118.938 25.9206ZM120.32 25.9206C120.32 26.442 120.232 26.9247 120.055 27.3692C119.878 27.8136 119.629 28.1979 119.309 28.5228C118.989 28.8477 118.603 29.1007 118.153 29.283C117.702 29.4647 117.203 29.5559 116.655 29.5559C116.108 29.5559 115.608 29.4647 115.156 29.283C114.704 29.1007 114.317 28.8477 113.995 28.5228C113.673 28.1979 113.424 27.8136 113.247 27.3692C113.07 26.9247 112.981 26.442 112.981 25.9206C112.981 25.3991 113.07 24.9165 113.247 24.4714C113.424 24.0269 113.673 23.6427 113.995 23.3178C114.317 22.9935 114.704 22.7398 115.156 22.5581C115.608 22.3758 116.108 22.2846 116.655 22.2846C117.203 22.2846 117.702 22.3771 118.153 22.5604C118.603 22.7443 118.989 22.9973 119.309 23.3206C119.629 23.6439 119.878 24.0269 120.055 24.4714C120.232 24.9165 120.32 25.3991 120.32 25.9206Z" fill="#FBFBFB"/>
<path d="M121.598 28.8111C121.598 28.5278 121.364 28.2982 121.075 28.2982C120.787 28.2982 120.553 28.5278 120.553 28.8111C120.553 29.0944 120.787 29.324 121.075 29.324C121.364 29.324 121.598 29.0944 121.598 28.8111Z" fill="#FBFBFB"/>
</svg>
