<svg xmlns="http://www.w3.org/2000/svg" viewBox="0 0 618 618" role="img" aria-label="MYSH logo">
  <title>MYSH logo</title>
  <path d="M 86.37 426.11 A 255.21 255.21 0 1 1 435.00 77.48 A 255.21 255.21 0 0 1 373.44 545.02" fill="none" stroke="#F4D03F" stroke-width="51.50" stroke-linecap="round"/>
  <path d="M 326.0 266.0 L 326.0 293.0 L 327.0 294.0 L 329.0 294.0 L 332.0 292.0 L 332.0 288.0 L 331.0 287.0 L 331.0 285.0 L 334.0 281.0 L 338.0 281.0 L 339.0 282.0 L 350.0 282.0 L 352.0 284.0 L 352.0 290.0 L 351.0 291.0 L 354.0 294.0 L 357.0 294.0 L 359.0 291.0 L 358.0 290.0 L 359.0 288.0 L 359.0 286.0 L 358.0 285.0 L 359.0 283.0 L 359.0 272.0 L 358.0 271.0 L 359.0 266.0 L 358.0 265.0 L 353.0 265.0 L 352.0 266.0 L 352.0 273.0 L 348.0 276.0 L 346.0 276.0 L 345.0 275.0 L 336.0 275.0 L 335.0 276.0 L 331.0 273.0 L 332.0 267.0 L 330.0 265.0 L 327.0 265.0 Z M 252.0 265.0 L 250.0 268.0 L 250.0 278.0 L 252.0 280.0 L 256.0 281.0 L 257.0 282.0 L 259.0 281.0 L 272.0 281.0 L 274.0 283.0 L 274.0 286.0 L 271.0 289.0 L 263.0 289.0 L 262.0 288.0 L 257.0 288.0 L 254.0 285.0 L 252.0 285.0 L 250.0 287.0 L 250.0 291.0 L 252.0 293.0 L 254.0 293.0 L 255.0 294.0 L 275.0 294.0 L 277.0 293.0 L 280.0 290.0 L 280.0 280.0 L 279.0 278.0 L 276.0 276.0 L 273.0 276.0 L 272.0 275.0 L 258.0 275.0 L 256.0 273.0 L 256.0 271.0 L 258.0 269.0 L 272.0 269.0 L 275.0 272.0 L 276.0 272.0 L 280.0 270.0 L 279.0 267.0 L 277.0 265.0 Z M 100.0 267.0 L 100.0 277.0 L 101.0 278.0 L 101.0 281.0 L 100.0 282.0 L 100.0 292.0 L 102.0 294.0 L 104.0 294.0 L 106.0 292.0 L 106.0 282.0 L 105.0 281.0 L 105.0 279.0 L 107.0 277.0 L 108.0 277.0 L 112.0 281.0 L 112.0 282.0 L 115.0 285.0 L 115.0 286.0 L 119.0 290.0 L 122.0 287.0 L 125.0 281.0 L 129.0 277.0 L 131.0 279.0 L 131.0 292.0 L 133.0 294.0 L 135.0 294.0 L 136.0 293.0 L 136.0 266.0 L 135.0 265.0 L 131.0 265.0 L 126.0 272.0 L 126.0 273.0 L 119.0 281.0 L 106.0 265.0 L 102.0 265.0 Z M 180.0 264.0 L 178.0 266.0 L 178.0 267.0 L 190.0 280.0 L 190.0 282.0 L 191.0 283.0 L 191.0 293.0 L 192.0 294.0 L 195.0 294.0 L 197.0 292.0 L 197.0 281.0 L 200.0 277.0 L 200.0 276.0 L 208.0 267.0 L 208.0 266.0 L 207.0 265.0 L 203.0 265.0 L 195.0 274.0 L 193.0 274.0 L 185.0 265.0 L 181.0 265.0 Z M 363.0 139.0 L 300.0 167.0 L 286.0 184.0 L 355.0 223.0 L 367.0 199.0 L 385.0 214.0 L 399.0 242.0 L 386.0 286.0 L 343.0 326.0 L 159.0 437.0 L 99.0 492.0 L 101.0 536.0 L 129.0 563.0 L 172.0 586.0 L 277.0 585.0 L 214.0 528.0 L 208.0 510.0 L 214.0 476.0 L 260.0 426.0 L 429.0 308.0 L 447.0 272.0 L 435.0 224.0 L 457.0 254.0 L 456.0 281.0 L 439.0 312.0 L 264.0 446.0 L 237.0 476.0 L 230.0 503.0 L 254.0 542.0 L 323.0 586.0 L 487.0 585.0 L 392.0 537.0 L 365.0 504.0 L 360.0 477.0 L 368.0 454.0 L 486.0 326.0 L 502.0 295.0 L 504.0 265.0 L 492.0 239.0 L 463.0 216.0 L 361.0 170.0 Z" fill="#FFFFFF" fill-rule="evenodd"/>
</svg>
